<svg width="45" height="35" viewBox="0 0 45 35" fill="none" xmlns="http://www.w3.org/2000/svg">
<path d="M0.477141 0.474937C-0.119334 1.06849 -0.119334 2.09725 0.477141 2.6908C0.835026 3.04693 5.96457 3.16564 21.1544 3.16564H41.3545V31.6551H3.18108L3.10156 19.3492C2.98227 8.11171 2.90275 6.96423 2.30627 6.56852C1.78935 6.25197 1.39169 6.25197 0.914545 6.56852C0.238551 6.9642 0.198809 8.15125 0.0795142 20.378C-4.41819e-06 29.914 0.119291 33.9105 0.437399 34.2666C1.07362 35.0184 43.3029 35.0975 44.0585 34.3457C44.7345 33.6731 44.7345 1.14758 44.0585 0.474907C43.3825 -0.197769 1.15313 -0.197769 0.477175 0.474907L0.477141 0.474937ZM8.42992 6.80591C8.15159 7.08287 7.95274 7.55771 7.95274 7.91384C7.95274 8.70522 21.4725 22.1586 22.2678 22.1586C23.0631 22.1586 36.5828 8.66564 36.5828 7.87426C36.5828 7.12245 35.7875 6.33107 35.032 6.33107C34.6741 6.33107 31.6918 9.06131 28.3516 12.3455L22.2678 18.3995L16.1839 12.3455C12.8437 9.06131 9.86143 6.33107 9.50354 6.33107C9.18544 6.33107 8.70826 6.52891 8.42992 6.80591ZM10.8158 23.4643C7.95274 26.3133 7.55512 27.1442 8.42992 28.0147C9.34451 28.9248 10.1795 28.4896 13.0425 25.601C15.9056 22.7521 16.3032 21.9212 15.4284 21.0506C14.5138 20.1405 13.6788 20.5758 10.8158 23.4643ZM29.1072 21.0507C28.1926 21.9608 28.63 22.7917 31.5328 25.6407C34.3958 28.4896 35.2308 28.8853 36.1056 28.0148C37.0202 27.1047 36.5828 26.2737 33.68 23.4248C30.817 20.5758 29.982 20.1802 29.1072 21.0507Z" fill="#08FDD8"/>
</svg>
