<svg width="100%" height="100%" viewBox="0 0 16 16" fill="none" xmlns="http://www.w3.org/2000/svg">
    <path
        d="M8.00001 2.80029L0.702698 5.53686L8.00001 9.18551L11.4756 7.4477L8.2151 6.45082C8.14796 6.48302 8.07447 6.49982 8.00001 6.49998C7.8674 6.49998 7.74022 6.4473 7.64646 6.35353C7.55269 6.25977 7.50001 6.13259 7.50001 5.99998C7.50001 5.86737 7.55269 5.7402 7.64646 5.64643C7.74022 5.55266 7.8674 5.49998 8.00001 5.49998L7.91732 5.76879L8.4966 5.94701L8.49685 5.94876L9.35167 6.21017L14.2188 7.70764V8.0872C14.1514 8.133 14.0963 8.19454 14.0582 8.26648C14.0201 8.33843 14.0001 8.41859 14 8.50001C14.0001 8.5833 14.021 8.66524 14.0608 8.7384C14.1006 8.81156 14.158 8.87363 14.2279 8.91895C14.0003 9.77911 14 11.7307 14 12.5C14.5 12.8248 14.5 12.8367 15 12.5C15 11.7308 14.9998 9.77957 14.7722 8.91923C14.8421 8.87387 14.8996 8.81175 14.9393 8.73853C14.9791 8.66531 15 8.58331 15 8.49998C15 8.41847 14.9801 8.3382 14.9419 8.26616C14.9038 8.19412 14.8487 8.13249 14.7813 8.08664V7.29226L12.9274 6.72186L15.2973 5.53686L8.00001 2.80029ZM3.73823 7.78123L3.32814 10.2419C4.1461 10.3488 5.12457 10.8243 6.02407 11.3864C6.53563 11.7062 7.01479 12.0572 7.40395 12.3977C7.64182 12.6058 7.84073 12.8055 8.00001 13.002C8.15929 12.8055 8.3582 12.6058 8.59607 12.3977C8.98523 12.0572 9.46435 11.7062 9.97595 11.3864C10.8754 10.8243 11.8539 10.3488 12.6719 10.2419L12.2617 7.78123H12.0664L8.00001 9.81445L3.93354 7.78123H3.73823Z"
        fill="currentColor" />
</svg>