<svg width="36" height="36" viewBox="0 0 36 36" fill="none" xmlns="http://www.w3.org/2000/svg">
<path d="M17.9999 0C8.05904 0 0 8.05882 0 17.9997C0 27.941 8.05904 35.9991 17.9999 35.9991C27.9418 35.9991 36 27.941 36 17.9997C36 8.05947 27.9418 0.000859763 17.9997 0.000859763L17.9999 0ZM26.2545 25.9607C25.9321 26.4895 25.24 26.6571 24.7112 26.3326C20.4851 23.7511 15.1648 23.1665 8.89925 24.598C8.29547 24.7355 7.69364 24.3572 7.55607 23.7532C7.41787 23.1493 7.79466 22.5474 8.39994 22.4099C15.2566 20.8427 21.138 21.5178 25.8827 24.4174C26.4114 24.742 26.5791 25.4319 26.2545 25.9607ZM28.4577 21.0589C28.0514 21.7199 27.1874 21.9284 26.5275 21.5221C21.6892 18.5476 14.3139 17.6863 8.59102 19.4235C7.84882 19.6476 7.06493 19.2294 6.83967 18.4885C6.61613 17.7463 7.03462 16.9639 7.77553 16.7382C14.3126 14.7547 22.4393 15.7155 27.9956 19.1298C28.6554 19.5361 28.8639 20.3999 28.4577 21.0589ZM28.6468 15.9554C22.8455 12.5096 13.2742 12.1928 7.73534 13.8739C6.8459 14.1436 5.90532 13.6415 5.63578 12.7521C5.36624 11.8622 5.86792 10.9223 6.75799 10.6519C13.1162 8.7217 23.686 9.09463 30.3651 13.0597C31.1668 13.5345 31.429 14.5677 30.954 15.3666C30.4811 16.1666 29.4451 16.4304 28.6477 15.9554H28.6468Z" fill="#08FDD8"/>
</svg>
